<svg version="1.1" viewBox="0.0 0.0 360.8923884514436 186.8477690288714" fill="none" stroke="none" stroke-linecap="square" stroke-miterlimit="10" xmlns:xlink="http://www.w3.org/1999/xlink" xmlns="http://www.w3.org/2000/svg"><clipPath id="p.0"><path d="m0 0l360.8924 0l0 186.84776l-360.8924 0l0 -186.84776z" clip-rule="nonzero"/></clipPath><g clip-path="url(#p.0)"><path fill="#000000" fill-opacity="0.0" d="m0 0l360.8924 0l0 186.84776l-360.8924 0z" fill-rule="evenodd"/><path fill="#000000" fill-opacity="0.0" d="m6.96063 9.270341l359.59055 0l0 174.51968l-359.59055 0z" fill-rule="evenodd"/><path fill="#f1c232" d="m58.33563 141.79097q-9.859375 0 -17.671875 -4.671875q-7.8125 -4.671875 -12.359373 -12.734375q-4.53125 -8.0625 -4.53125 -18.171875q0 -10.25 4.671875 -18.3125q4.671873 -8.0625 12.734373 -12.734375q8.0625 -4.671875 18.171875 -4.671875q10.109379 0 18.109379 4.671875q8.0 4.671875 12.671875 12.734375q4.671875 8.0625 4.796875 18.3125l-3.953125 3.0625q0 9.21875 -4.296875 16.578125q-4.28125 7.359375 -11.640625 11.65625q-7.359375 4.28125 -16.703129 4.28125zm1.015625 -8.953125q7.421879 0 13.250004 -3.453125q5.828125 -3.46875 9.21875 -9.546875q3.390625 -6.078125 3.390625 -13.625q0 -7.6875 -3.390625 -13.703125q-3.390625 -6.015625 -9.21875 -9.53125q-5.828125 -3.53125 -13.250004 -3.53125q-7.296875 0 -13.1875 3.53125q-5.890625 3.515625 -9.34375 9.53125q-3.453125 6.015625 -3.453125 13.703125q0 7.546875 3.453125 13.625q3.453125 6.078125 9.34375 9.546875q5.890625 3.453125 13.1875 3.453125zm30.593754 8.3125q-2.171875 0 -3.59375 -1.34375q-1.40625 -1.34375 -1.40625 -3.515625l0 -21.890625l2.4375 -10.109375l7.546875 1.921875l0 30.078125q0 2.171875 -1.40625 3.515625q-1.40625 1.34375 -3.578125 1.34375zm84.21852 0q-2.171875 0 -3.578125 -1.40625q-1.40625 -1.40625 -1.40625 -3.453125l0 -33.28125q0 -7.9375 -3.015625 -13.046875q-3.0 -5.125 -8.1875 -7.6875q-5.1875 -2.5625 -11.71875 -2.5625q-6.265625 0 -11.328125 2.4375q-5.046875 2.421875 -8.0 6.65625q-2.9375 4.21875 -2.9375 9.59375l-7.03125 0q0.25 -8.0625 4.34375 -14.390625q4.09375 -6.34375 10.875 -9.984375q6.796875 -3.65625 15.109375 -3.65625q9.09375 0 16.25 3.78125q7.171875 3.765625 11.328125 11.0625q4.171875 7.296875 4.171875 17.796875l0 33.28125q0 2.046875 -1.421875 3.453125q-1.40625 1.40625 -3.453125 1.40625zm-55.03125 0q-2.3125 0 -3.65625 -1.34375q-1.34375 -1.34375 -1.34375 -3.515625l0 -60.171875q0 -2.296875 1.34375 -3.640625q1.34375 -1.34375 3.65625 -1.34375q2.171875 0 3.515625 1.34375q1.34375 1.34375 1.34375 3.640625l0 60.171875q0 2.171875 -1.34375 3.515625q-1.34375 1.34375 -3.515625 1.34375zm93.68727 30.46875q-1.015625 0 -2.296875 -0.515625q-4.359375 -1.921875 -2.4375 -6.140625l41.34375 -91.140625q1.921875 -4.09375 6.140625 -2.296875q4.359375 1.78125 2.4375 6.015625l-41.46875 91.125q-1.28125 2.953125 -3.71875 2.953125zm14.21875 -32.640625q-1.921875 0.890625 -3.59375 0.3125q-1.65625 -0.578125 -2.6875 -2.5l-28.546875 -59.125q-0.890625 -1.921875 -0.25 -3.578125q0.640625 -1.671875 2.5625 -2.5625q1.921875 -0.90625 3.578125 -0.328125q1.671875 0.578125 2.5625 2.5l28.03125 59.140625q1.03125 1.90625 0.640625 3.578125q-0.375 1.65625 -2.296875 2.5625zm72.19339 2.8125q-9.859375 0 -17.671875 -4.671875q-7.8125 -4.671875 -12.359375 -12.734375q-4.53125 -8.0625 -4.53125 -18.171875q0 -10.25 4.671875 -18.3125q4.671875 -8.0625 12.734375 -12.734375q8.0625 -4.671875 18.171875 -4.671875q10.109375 0 18.109375 4.671875q8.0 4.671875 12.671875 12.734375q4.671875 8.0625 4.796875 18.3125l-3.953125 3.0625q0 9.21875 -4.296875 16.578125q-4.28125 7.359375 -11.640625 11.65625q-7.359375 4.28125 -16.703125 4.28125zm1.015625 -8.953125q7.421875 0 13.25 -3.453125q5.828125 -3.46875 9.21875 -9.546875q3.390625 -6.078125 3.390625 -13.625q0 -7.6875 -3.390625 -13.703125q-3.390625 -6.015625 -9.21875 -9.53125q-5.828125 -3.53125 -13.25 -3.53125q-7.296875 0 -13.1875 3.53125q-5.890625 3.515625 -9.34375 9.53125q-3.453125 6.015625 -3.453125 13.703125q0 7.546875 3.453125 13.625q3.453125 6.078125 9.34375 9.546875q5.890625 3.453125 13.1875 3.453125zm30.59375 8.3125q-2.171875 0 -3.59375 -1.34375q-1.40625 -1.34375 -1.40625 -3.515625l0 -21.890625l2.4375 -10.109375l7.546875 1.921875l0 30.078125q0 2.171875 -1.40625 3.515625q-1.40625 1.34375 -3.578125 1.34375z" fill-rule="nonzero"/></g></svg>